<?xml version="1.0" standalone="no"?>
<!DOCTYPE svg PUBLIC "-//W3C//DTD SVG 20010904//EN"
 "http://www.w3.org/TR/2001/REC-SVG-20010904/DTD/svg10.dtd">
<svg version="1.0" xmlns="http://www.w3.org/2000/svg"
 width="367.000000pt" height="367.000000pt" viewBox="0 0 367.000000 367.000000"
 preserveAspectRatio="xMidYMid meet">
<metadata>
Created by potrace 1.14, written by Peter Selinger 2001-2017
</metadata>
<g transform="translate(0.000000,367.000000) scale(0.100000,-0.100000)"
fill="#000000" stroke="none">
<path d="M1194 3130 c-228 -74 -460 -351 -562 -670 -50 -159 -66 -273 -66
-475 0 -161 3 -191 26 -281 47 -181 129 -357 236 -508 71 -99 292 -322 398
-402 259 -195 520 -306 735 -313 114 -4 263 31 379 89 160 81 625 427 743 553
97 105 137 242 102 349 -32 100 -114 174 -250 228 -102 40 -291 135 -381 191
-295 183 -529 449 -774 879 -119 210 -189 288 -310 348 -73 36 -187 41 -276
12z"/>
</g>
</svg>
