<?xml version="1.0" standalone="no"?>
<!DOCTYPE svg PUBLIC "-//W3C//DTD SVG 20010904//EN"
 "http://www.w3.org/TR/2001/REC-SVG-20010904/DTD/svg10.dtd">
<svg version="1.0" xmlns="http://www.w3.org/2000/svg"
 width="665.000000pt" height="665.000000pt" viewBox="0 0 665.000000 665.000000"
 preserveAspectRatio="xMidYMid meet">
<metadata>
Created by potrace 1.14, written by Peter Selinger 2001-2017
</metadata>
<g transform="translate(0.000000,665.000000) scale(0.100000,-0.100000)"
fill="#000000" stroke="none">
<path d="M3162 5777 c141 -114 202 -308 172 -546 -7 -58 -19 -124 -25 -146
-25 -90 -72 -215 -80 -215 -5 0 -9 -7 -9 -16 0 -9 -19 -50 -42 -92 -38 -70
-42 -74 -55 -56 -13 17 -12 19 7 22 11 2 18 7 15 12 -3 4 -14 6 -26 3 -17 -5
-19 -2 -16 18 2 13 2 18 0 12 -3 -7 -8 -13 -13 -13 -5 0 -12 -9 -15 -21 -10
-31 -69 -128 -162 -268 -46 -68 -83 -128 -83 -133 0 -4 -4 -8 -10 -8 -5 0 -10
-7 -10 -15 0 -8 -5 -15 -10 -15 -6 0 -14 -8 -17 -17 -4 -10 -23 -40 -43 -68
-71 -97 -230 -336 -230 -346 0 -5 -4 -9 -9 -9 -8 0 -33 -42 -65 -107 -6 -13
-14 -23 -18 -23 -5 0 -8 -6 -8 -14 0 -8 -6 -21 -13 -28 -17 -17 -57 -100 -57
-119 0 -8 9 -27 20 -44 24 -36 25 -30 5 20 -15 34 -15 36 2 33 10 -2 23 -14
30 -28 12 -23 13 -24 13 -4 0 12 -7 25 -16 28 -13 5 -14 9 -4 21 14 17 35 21
25 5 -3 -5 -2 -10 4 -10 6 0 8 12 5 29 -6 28 -5 29 31 29 22 0 42 6 46 14 10
18 42 56 35 43 -2 -6 5 -10 17 -9 36 3 67 16 61 25 -3 5 2 9 10 9 8 0 18 -4
21 -10 3 -5 1 -10 -6 -10 -7 0 -10 -2 -7 -5 3 -3 16 -1 29 4 17 7 19 10 7 10
-22 1 -23 8 -3 27 13 14 15 14 15 0 0 -13 15 -16 89 -16 62 0 91 -4 94 -12 4
-10 6 -10 6 0 1 18 21 15 21 -4 0 -14 1 -14 16 0 8 9 20 13 26 10 7 -4 6 -9
-2 -14 -9 -5 -9 -9 -1 -14 6 -4 11 -2 11 3 0 17 38 13 48 -5 6 -11 11 -13 16
-5 9 14 66 15 66 0 0 -5 4 -8 9 -5 5 4 11 2 13 -4 1 -5 17 -10 35 -12 17 -1
30 -5 27 -9 -2 -4 3 -10 12 -13 10 -4 13 -2 8 6 -4 7 -3 8 4 4 7 -4 12 -12 12
-17 0 -19 28 -39 54 -39 27 0 51 -32 42 -55 -3 -9 0 -12 9 -8 8 3 18 -2 21
-11 10 -25 29 -19 45 14 8 17 58 119 112 228 55 108 105 211 112 227 7 17 17
41 23 55 47 109 72 181 66 191 -4 7 -3 9 3 6 6 -4 16 12 23 36 7 23 16 51 20
62 16 39 38 121 55 200 9 44 22 98 28 120 8 25 12 118 12 245 0 203 -7 255
-45 345 -4 11 -15 38 -25 60 -84 205 -281 377 -554 484 -79 32 -87 25 -29 -22z
m-42 -1112 c0 -8 -4 -15 -10 -15 -5 0 -10 7 -10 15 0 8 5 15 10 15 6 0 10 -7
10 -15z m-340 -920 c0 -2 -9 -3 -19 -2 -11 0 -18 5 -15 9 4 6 34 0 34 -7z
m-215 -14 c3 -5 0 -13 -6 -17 -7 -4 -9 -3 -5 4 3 6 -2 13 -11 15 -16 4 -16 5
-1 6 9 0 19 -3 23 -8z m632 -63 c-3 -8 -6 -5 -6 6 -1 11 2 17 5 13 3 -3 4 -12
1 -19z"/>
<path d="M3151 4854 c0 -11 3 -14 6 -6 3 7 2 16 -1 19 -3 4 -6 -2 -5 -13z"/>
<path d="M3126 4825 c-9 -26 -7 -32 5 -12 6 10 9 21 6 23 -2 3 -7 -2 -11 -11z"/>
<path d="M3130 4782 c0 -5 7 -15 15 -22 8 -7 15 -8 15 -2 0 5 -7 15 -15 22 -8
7 -15 8 -15 2z"/>
<path d="M2291 4654 c0 -11 3 -14 6 -6 3 7 2 16 -1 19 -3 4 -6 -2 -5 -13z"/>
<path d="M4316 4627 c-81 -43 -203 -165 -250 -249 -21 -37 -52 -107 -69 -155
l-31 -88 0 -252 c0 -139 -4 -253 -8 -253 -5 0 -8 7 -8 15 0 8 -4 15 -9 15 -5
0 -5 -15 -1 -35 5 -23 4 -33 -2 -29 -16 10 -1 -71 28 -163 52 -158 131 -329
234 -503 34 -58 139 -273 158 -325 21 -58 61 -201 78 -280 25 -115 25 -375 1
-470 -27 -104 -56 -183 -91 -250 -117 -226 -306 -392 -538 -475 -66 -23 -35
-25 64 -5 183 39 386 134 551 258 304 229 498 533 589 922 28 121 31 437 4
560 -46 219 -181 520 -334 749 -15 21 -31 46 -37 56 -5 11 -38 63 -71 117 -83
132 -158 291 -184 388 -29 112 -36 257 -16 375 8 52 12 98 8 102 -4 3 -34 -8
-66 -25z"/>
<path d="M2264 4615 c-3 -8 -4 -20 -1 -27 3 -7 6 -3 6 9 1 12 7 24 14 26 9 4
9 6 -1 6 -7 1 -15 -6 -18 -14z"/>
<path d="M2230 4552 c-47 -100 -63 -189 -63 -347 1 -166 10 -254 25 -234 7 10
8 6 5 -14 -5 -28 4 -62 30 -124 7 -17 13 -38 13 -48 0 -9 4 -14 9 -11 5 4 5
22 0 43 -5 21 -7 61 -4 88 3 38 2 43 -4 20 -7 -25 -9 -27 -16 -12 -4 10 -2 31
6 49 8 19 13 75 13 142 1 61 5 117 9 124 5 7 5 11 0 10 -4 -2 -8 2 -8 7 0 6 3
9 7 8 4 -2 3 9 -2 23 -12 31 -12 37 -2 30 5 -3 8 8 8 24 0 16 -3 27 -7 25 -12
-8 2 110 17 132 18 29 18 43 0 17 -20 -27 -29 -12 -18 30 12 43 0 56 -18 18z
m10 -102 c0 -22 -4 -40 -9 -40 -5 0 -12 -10 -15 -22 -2 -13 -3 -3 -1 22 2 25
4 53 4 63 2 36 21 15 21 -23z"/>
<path d="M2250 3976 c0 -8 5 -18 10 -21 6 -3 10 3 10 14 0 12 -4 21 -10 21 -5
0 -10 -6 -10 -14z"/>
<path d="M2259 3888 c-5 -17 -4 -48 3 -48 4 0 8 11 8 25 0 20 -7 34 -11 23z"/>
<path d="M2265 3771 c-4 -23 -4 -45 -1 -48 3 -4 6 5 6 18 0 14 4 29 10 35 5 5
6 15 1 23 -6 9 -11 1 -16 -28z"/>
<path d="M2291 3734 c0 -11 3 -14 6 -6 3 7 2 16 -1 19 -3 4 -6 -2 -5 -13z"/>
<path d="M2275 3690 c3 -5 8 -10 11 -10 2 0 4 5 4 10 0 6 -5 10 -11 10 -5 0
-7 -4 -4 -10z"/>
<path d="M2291 3654 c0 -11 3 -14 6 -6 3 7 2 16 -1 19 -3 4 -6 -2 -5 -13z"/>
<path d="M3912 3630 c0 -14 2 -19 5 -12 2 6 2 18 0 25 -3 6 -5 1 -5 -13z"/>
<path d="M2222 3408 c-73 -137 -121 -268 -134 -361 -13 -98 -5 -285 16 -383
40 -187 163 -418 290 -545 25 -26 46 -50 46 -54 0 -3 -7 1 -16 9 -8 9 -21 16
-28 16 -8 0 -19 6 -25 14 -11 13 -15 12 -32 -5 -10 -10 -25 -19 -31 -18 -10 0
-10 2 0 6 6 2 9 9 6 14 -3 6 -12 2 -20 -8 -8 -11 -17 -14 -21 -8 -10 12 -29
18 -63 19 -14 1 -30 5 -37 9 -6 4 -13 2 -15 -4 -6 -17 -48 7 -48 26 0 9 -6 12
-15 9 -11 -4 -15 0 -15 17 0 12 -3 20 -6 17 -8 -9 7 -98 16 -98 5 0 10 6 13
13 2 6 2 0 0 -14 -5 -31 14 -82 71 -198 122 -250 357 -480 638 -624 47 -24 93
-47 104 -50 10 -3 37 -13 59 -22 128 -48 303 -70 446 -55 274 28 531 188 684
425 59 91 75 123 105 215 98 296 52 639 -130 955 -84 147 -250 353 -272 339
-6 -4 -5 -10 3 -15 11 -6 11 -11 1 -21 -6 -6 -12 -17 -12 -22 0 -6 7 -3 15 7
13 18 14 18 24 -2 14 -25 14 -41 1 -21 -7 10 -10 11 -10 2 0 -7 7 -15 15 -18
8 -4 15 -11 15 -16 0 -6 -6 -8 -14 -5 -10 4 -12 0 -9 -14 6 -20 23 -27 23 -8
0 5 3 8 8 6 4 -3 7 -20 7 -39 0 -18 5 -39 12 -46 8 -8 12 -34 11 -65 l-2 -52
-3 53 c-2 28 -9 52 -15 52 -6 0 -8 -22 -5 -62 3 -35 2 -83 -2 -108 -9 -50 -13
-29 -12 60 1 40 -1 51 -9 40 -19 -29 -9 -115 23 -195 12 -29 12 -28 18 35 l6
65 -2 -76 c-2 -84 -14 -120 -27 -79 -4 15 -5 8 -2 -19 5 -34 3 -42 -6 -36 -9
6 -11 4 -5 -4 4 -7 3 -23 -3 -34 -48 -104 -54 -113 -98 -177 -48 -67 -180
-191 -255 -238 -92 -58 -200 -106 -289 -128 -95 -23 -314 -25 -375 -2 -38 14
-40 17 -48 69 -14 103 11 366 48 499 9 30 20 71 25 90 5 19 18 59 30 89 l20
55 -73 75 c-39 42 -74 78 -77 81 -26 25 -159 183 -211 250 -73 93 -187 262
-238 353 -18 31 -34 57 -36 57 -2 0 -25 -42 -53 -92z"/>
<path d="M2401 3454 c0 -11 3 -14 6 -6 3 7 2 16 -1 19 -3 4 -6 -2 -5 -13z"/>
<path d="M3720 3140 c0 -5 5 -10 11 -10 5 0 7 5 4 10 -3 6 -8 10 -11 10 -2 0
-4 -4 -4 -10z"/>
<path d="M2071 3044 c0 -11 3 -14 6 -6 3 7 2 16 -1 19 -3 4 -6 -2 -5 -13z"/>
<path d="M2051 2984 c0 -11 3 -14 6 -6 3 7 2 16 -1 19 -3 4 -6 -2 -5 -13z"/>
<path d="M3831 2884 c0 -11 3 -14 6 -6 3 7 2 16 -1 19 -3 4 -6 -2 -5 -13z"/>
<path d="M3840 2850 c0 -5 5 -10 10 -10 6 0 10 5 10 10 0 6 -4 10 -10 10 -5 0
-10 -4 -10 -10z"/>
<path d="M3847 2584 c-4 -4 -7 -14 -7 -23 0 -11 3 -12 11 -4 6 6 10 16 7 23
-2 6 -7 8 -11 4z"/>
<path d="M3831 2524 c0 -11 3 -14 6 -6 3 7 2 16 -1 19 -3 4 -6 -2 -5 -13z"/>
<path d="M3831 2444 c0 -11 3 -14 6 -6 3 7 2 16 -1 19 -3 4 -6 -2 -5 -13z"/>
<path d="M2050 2200 c0 -5 5 -10 11 -10 5 0 7 5 4 10 -3 6 -8 10 -11 10 -2 0
-4 -4 -4 -10z"/>
<path d="M2130 2146 c0 -14 4 -26 8 -26 11 0 12 39 1 45 -5 4 -9 -5 -9 -19z"/>
</g>
</svg>
